# xmcd
#
# Track frame offsets:
#	150
#	937
#	6049
#	15274
#	25338
#	35542
#	37295
#	56211
#	65438
#	71105
#	82252
#	84395
#	85300
#	99729
#	102428
#	104670
#	116714
#	122839
#	138572
#	142426
#	144659
#	163684
#	165793
#	171384
#	186471
#	192111
#
# Disc length: 2738 seconds
# Revision: 0
# Processed by: cddbd v1.5.2PL0 Copyright (c) Steve Scherf et al.
# Submitted via: dBpowerAMP V12.0
#
DISCID=7b0ab01a
DTITLE=Psalty and The Kids' Praise! Kids - Kids' Praise! 6: Heart To Change The World
DYEAR=1987
DGENRE=Children's Christian
TTITLE0=Interlude 1
TTITLE1=Interlude 2: Introduction
TTITLE2=Come Into The Workshop
TTITLE3=Interlude 3
TTITLE4=John 3:16
TTITLE5=Interlude 4
TTITLE6=Interlude 5: Introducing The Psaltyscope!
TTITLE7=I Want To Know
TTITLE8=Interlude 6
TTITLE9=Pig Out!
TTITLE10=Interlude 7: "Harmony...You And I Need To Have A Little Talk!"
TTITLE11=Interlude 8: Jimmy's Prayer
TTITLE12=Child Of The King
TTITLE13=Interlude 9
TTITLE14=Interlude 10: "It's Important To Be Thankful!"
TTITLE15=Be Thankful
TTITLE16=Interlude 11
TTITLE17=My Hands Are The Hands (That God Will Use)
TTITLE18=Interlude 12: "Jimmy's Here!"
TTITLE19=Interlude 13
TTITLE20=This Little Light Of Mine
TTITLE21=Interlude 14: "There Are Lots Of Needs At Our Church"
TTITLE22=Interlude 15: The Sunday Evening Service
TTITLE23=Heart To Change The World
TTITLE24=Interlude 16: Conclusion
TTITLE25=Into My Heart
EXTD=
EXTT0=
EXTT1=
EXTT2=
EXTT3=
EXTT4=
EXTT5=
EXTT6=
EXTT7=
EXTT8=
EXTT9=
EXTT10=
EXTT11=
EXTT12=
EXTT13=
EXTT14=
EXTT15=
EXTT16=
EXTT17=
EXTT18=
EXTT19=
EXTT20=
EXTT21=
EXTT22=
EXTT23=
EXTT24=
EXTT25=
PLAYORDER=
